{"accessors":[{"bufferView":0,"byteOffset":0,"componentType":5126,"count":2172,"max":[10.6819,2.426508,10.6819],"min":[-10.6819,-0.613474,-10.6819],"normalized":false,"type":"VEC3"},{"bufferView":1,"byteOffset":0,"componentType":5126,"count":2172,"max":[1,0.199956,0.990607,1],"min":[-0.990612,-1,-0.99061,-1],"normalized":false,"type":"VEC4"},{"bufferView":2,"byteOffset":0,"componentType":5126,"count":2172,"max":[0.990607,1,0.990607],"min":[-0.990607,-1,-0.990604],"normalized":false,"type":"VEC3"},{"bufferView":3,"byteOffset":0,"componentType":5126,"count":2172,"max":[1,1],"min":[0,0],"normalized":false,"type":"VEC2"},{"bufferView":4,"byteOffset":0,"componentType":5125,"count":2172,"max":[2171],"min":[0],"normalized":false,"type":"SCALAR"},{"bufferView":5,"byteOffset":0,"componentType":5126,"count":1671,"max":[6.660345,5.17799,4.77154],"min":[-6.55775,-0.50019,-4.9763],"normalized":false,"type":"VEC3"},{"bufferView":6,"byteOffset":0,"componentType":5126,"count":1671,"max":[1,0.993465,1,1],"min":[-1,-1,-1,-1],"normalized":false,"type":"VEC4"},{"bufferView":7,"byteOffset":0,"componentType":5126,"count":1671,"max":[1,1,1],"min":[-1,-1,-1],"normalized":false,"type":"VEC3"},{"bufferView":8,"byteOffset":0,"componentType":5126,"count":1671,"max":[1,1],"min":[0,0],"normalized":false,"type":"VEC2"},{"bufferView":9,"byteOffset":0,"componentType":5125,"count":1671,"max":[1670],"min":[0],"normalized":false,"type":"SCALAR"},{"bufferView":10,"byteOffset":0,"componentType":5126,"count":1737,"max":[10.58331,5.17799,4.77154],"min":[-6.55775,-0.50019,-4.9763],"normalized":false,"type":"VEC3"},{"bufferView":11,"byteOffset":0,"componentType":5126,"count":1737,"max":[1,0.999879,1,1],"min":[-1,-1,-1,-1],"normalized":false,"type":"VEC4"},{"bufferView":12,"byteOffset":0,"componentType":5126,"count":1737,"max":[1,1,1],"min":[-1,-1,-1],"normalized":false,"type":"VEC3"},{"bufferView":13,"byteOffset":0,"componentType":5126,"count":1737,"max":[1,1],"min":[0,0],"normalized":false,"type":"VEC2"},{"bufferView":14,"byteOffset":0,"componentType":5125,"count":1737,"max":[1736],"min":[0],"normalized":false,"type":"SCALAR"},{"bufferView":15,"byteOffset":0,"componentType":5126,"count":1683,"max":[6.660345,5.17799,4.77154],"min":[-12.696176,-0.50019,-4.9763],"normalized":false,"type":"VEC3"},{"bufferView":16,"byteOffset":0,"componentType":5126,"count":1683,"max":[1,0.992664,1,1],"min":[-1,-1,-1,-1],"normalized":false,"type":"VEC4"},{"bufferView":17,"byteOffset":0,"componentType":5126,"count":1683,"max":[1,1,1],"min":[-1,-1,-1],"normalized":false,"type":"VEC3"},{"bufferView":18,"byteOffset":0,"componentType":5126,"count":1683,"max":[1,1],"min":[0,0],"normalized":false,"type":"VEC2"},{"bufferView":19,"byteOffset":0,"componentType":5125,"count":1683,"max":[1682],"min":[0],"normalized":false,"type":"SCALAR"},{"bufferView":20,"byteOffset":0,"componentType":5126,"count":1740,"max":[6.660345,5.17799,4.77154],"min":[-9.31581,-0.50019,-4.9763],"normalized":false,"type":"VEC3"},{"bufferView":21,"byteOffset":0,"componentType":5126,"count":1740,"max":[1,0.799767,1,1],"min":[-1,-1,-1,-1],"normalized":false,"type":"VEC4"},{"bufferView":22,"byteOffset":0,"componentType":5126,"count":1740,"max":[1,1,1],"min":[-1,-1,-1],"normalized":false,"type":"VEC3"},{"bufferView":23,"byteOffset":0,"componentType":5126,"count":1740,"max":[1,1],"min":[0,0],"normalized":false,"type":"VEC2"},{"bufferView":24,"byteOffset":0,"componentType":5125,"count":1740,"max":[1739],"min":[0],"normalized":false,"type":"SCALAR"},{"bufferView":25,"byteOffset":0,"componentType":5126,"count":1764,"max":[10.64421,5.17799,4.77154],"min":[-18.5741,-0.50019,-4.9763],"normalized":false,"type":"VEC3"},{"bufferView":26,"byteOffset":0,"componentType":5126,"count":1764,"max":[1,0.999888,1,1],"min":[-1,-1,-1,-1],"normalized":false,"type":"VEC4"},{"bufferView":27,"byteOffset":0,"componentType":5126,"count":1764,"max":[1,1,1],"min":[-1,-1,-1],"normalized":false,"type":"VEC3"},{"bufferView":28,"byteOffset":0,"componentType":5126,"count":1764,"max":[1,1],"min":[0,0],"normalized":false,"type":"VEC2"},{"bufferView":29,"byteOffset":0,"componentType":5125,"count":1764,"max":[1763],"min":[0],"normalized":false,"type":"SCALAR"},{"bufferView":30,"byteOffset":0,"componentType":5126,"count":5127,"max":[22.83774,9.724865,-4.500005],"min":[-27.871107,-0.601403,-51.574802],"normalized":false,"type":"VEC3"},{"bufferView":31,"byteOffset":0,"componentType":5126,"count":5127,"max":[1,0.996751,0.958435,1],"min":[-1,-1,-1,-1],"normalized":false,"type":"VEC4"},{"bufferView":32,"byteOffset":0,"componentType":5126,"count":5127,"max":[1,1,1],"min":[-1,-1,-1],"normalized":false,"type":"VEC3"},{"bufferView":33,"byteOffset":0,"componentType":5126,"count":5127,"max":[1,1],"min":[0,0],"normalized":false,"type":"VEC2"},{"bufferView":34,"byteOffset":0,"componentType":5125,"count":5127,"max":[5126],"min":[0],"normalized":false,"type":"SCALAR"}],"asset":{"generator":"Godot Engine v4.2.1.stable.official@b09f793f564a6c95dc76acc654b390e68441bd01","version":"2.0"},"bufferViews":[{"buffer":0,"byteLength":26064,"byteOffset":0},{"buffer":0,"byteLength":34752,"byteOffset":26064},{"buffer":0,"byteLength":26064,"byteOffset":60816},{"buffer":0,"byteLength":17376,"byteOffset":86880},{"buffer":0,"byteLength":8688,"byteOffset":104256},{"buffer":0,"byteLength":20052,"byteOffset":112944},{"buffer":0,"byteLength":26736,"byteOffset":132996},{"buffer":0,"byteLength":20052,"byteOffset":159732},{"buffer":0,"byteLength":13368,"byteOffset":179784},{"buffer":0,"byteLength":6684,"byteOffset":193152},{"buffer":0,"byteLength":20844,"byteOffset":199836},{"buffer":0,"byteLength":27792,"byteOffset":220680},{"buffer":0,"byteLength":20844,"byteOffset":248472},{"buffer":0,"byteLength":13896,"byteOffset":269316},{"buffer":0,"byteLength":6948,"byteOffset":283212},{"buffer":0,"byteLength":20196,"byteOffset":290160},{"buffer":0,"byteLength":26928,"byteOffset":310356},{"buffer":0,"byteLength":20196,"byteOffset":337284},{"buffer":0,"byteLength":13464,"byteOffset":357480},{"buffer":0,"byteLength":6732,"byteOffset":370944},{"buffer":0,"byteLength":20880,"byteOffset":377676},{"buffer":0,"byteLength":27840,"byteOffset":398556},{"buffer":0,"byteLength":20880,"byteOffset":426396},{"buffer":0,"byteLength":13920,"byteOffset":447276},{"buffer":0,"byteLength":6960,"byteOffset":461196},{"buffer":0,"byteLength":21168,"byteOffset":468156},{"buffer":0,"byteLength":28224,"byteOffset":489324},{"buffer":0,"byteLength":21168,"byteOffset":517548},{"buffer":0,"byteLength":14112,"byteOffset":538716},{"buffer":0,"byteLength":7056,"byteOffset":552828},{"buffer":0,"byteLength":61524,"byteOffset":559884},{"buffer":0,"byteLength":82032,"byteOffset":621408},{"buffer":0,"byteLength":61524,"byteOffset":703440},{"buffer":0,"byteLength":41016,"byteOffset":764964},{"buffer":0,"byteLength":20508,"byteOffset":805980}],"buffers":[{"byteLength":826488,"uri":"mapa_block0.bin"}],"extensionsUsed":["GODOT_single_root"],"materials":[{"extensions":{},"pbrMetallicRoughness":{"baseColorFactor":[0.99999988079071,0.99999988079071,0.99999988079071,1],"metallicFactor":0,"roughnessFactor":1}},{"extensions":{},"pbrMetallicRoughness":{"baseColorFactor":[0.99999988079071,0.99999988079071,0.99999988079071,1],"metallicFactor":0,"roughnessFactor":1}},{"extensions":{},"pbrMetallicRoughness":{"baseColorFactor":[0.99999988079071,0.99999988079071,0.99999988079071,1],"metallicFactor":0,"roughnessFactor":1}},{"extensions":{},"pbrMetallicRoughness":{"baseColorFactor":[0.99999988079071,0.99999988079071,0.99999988079071,1],"metallicFactor":0,"roughnessFactor":1}},{"extensions":{},"pbrMetallicRoughness":{"baseColorFactor":[0.99999988079071,0.99999988079071,0.99999988079071,1],"metallicFactor":0,"roughnessFactor":1}},{"extensions":{},"pbrMetallicRoughness":{"baseColorFactor":[0.99999988079071,0.99999988079071,0.99999988079071,1],"metallicFactor":0,"roughnessFactor":1}},{"extensions":{},"pbrMetallicRoughness":{"baseColorFactor":[0.99999988079071,0.99999988079071,0.99999988079071,1],"metallicFactor":0,"roughnessFactor":1}}],"meshes":[{"extras":{"targetNames":[]},"primitives":[{"attributes":{"NORMAL":2,"POSITION":0,"TANGENT":1,"TEXCOORD_0":3},"indices":4,"material":0,"mode":4}]},{"extras":{"targetNames":[]},"primitives":[{"attributes":{"NORMAL":7,"POSITION":5,"TANGENT":6,"TEXCOORD_0":8},"indices":9,"material":1,"mode":4}]},{"extras":{"targetNames":[]},"primitives":[{"attributes":{"NORMAL":12,"POSITION":10,"TANGENT":11,"TEXCOORD_0":13},"indices":14,"material":2,"mode":4}]},{"extras":{"targetNames":[]},"primitives":[{"attributes":{"NORMAL":17,"POSITION":15,"TANGENT":16,"TEXCOORD_0":18},"indices":19,"material":3,"mode":4}]},{"extras":{"targetNames":[]},"primitives":[{"attributes":{"NORMAL":22,"POSITION":20,"TANGENT":21,"TEXCOORD_0":23},"indices":24,"material":4,"mode":4}]},{"extras":{"targetNames":[]},"primitives":[{"attributes":{"NORMAL":27,"POSITION":25,"TANGENT":26,"TEXCOORD_0":28},"indices":29,"material":5,"mode":4}]},{"extras":{"targetNames":[]},"primitives":[{"attributes":{"NORMAL":32,"POSITION":30,"TANGENT":31,"TEXCOORD_0":33},"indices":34,"material":6,"mode":4}]}],"nodes":[{"children":[1,22,34,46,58,70,82],"extensions":{},"name":"MapaBlock"},{"children":[2,3,4,5,6,7,8,9,10,11,12,13,14,15,16,17,18,19,20,21],"extensions":{},"mesh":0,"name":"Patio2","rotation":[0,1,0,-0.0000000437114],"translation":[-8.15649032592773,0.00000381469999410911,-31.8358001708984]},{"extensions":{},"name":"Piso"},{"extensions":{},"name":"Fuente","translation":[0,0.653778970241547,0]},{"extensions":{},"name":"Maceta","translation":[1.83906996250153,0.803288996219635,3.51110005378723]},{"extensions":{},"name":"Maceta2","translation":[-2.38615989685059,0.803288996219635,3.30064010620117]},{"extensions":{},"name":"Maceta3","translation":[-4.27084016799927,0.803288996219635,-0.05175210162997]},{"extensions":{},"name":"Maceta4","translation":[-3.12794995307922,0.736289978027344,-3.81145000457764]},{"extensions":{},"name":"Maceta8","translation":[-3.83307003974915,0.921334028244019,-1.95097005367279]},{"extensions":{},"name":"Maceta5","translation":[0.389901995658875,0.803288996219635,-4.74086999893188]},{"extensions":{},"name":"Maceta6","translation":[3.44913005828857,0.803288996219635,-2.61743998527527]},{"extensions":{},"name":"Maceta7","translation":[4.13085985183716,0.803288996219635,1.0733300447464]},{"extensions":{},"name":"BancaChueca","rotation":[0.0693794265389442,0.564073026180267,-0.07334564626217,0.819529473781586],"translation":[-3.61572003364563,0.290230989456177,7.71687984466553]},{"extensions":{},"name":"Banca2","rotation":[0,0.192299038171768,0,0.981336355209351],"translation":[-7.22798013687134,0.694312989711761,4.37716007232666]},{"extensions":{},"name":"Banca","rotation":[0,-0.50750857591629,0,0.861646711826324],"translation":[-3.96661996841431,0.694312989711761,-5.95752000808716]},{"extensions":{},"name":"Banca3","rotation":[0,0.879029393196106,0,-0.47676762938499],"translation":[4.18865013122559,0.694310009479523,-6.54462003707886]},{"extensions":{},"name":"Banca4","rotation":[0,0.974949836730957,0,-0.22242484986782],"translation":[7.98197984695435,0.694307029247284,-2.28135991096497]},{"extensions":{},"name":"CSGBox3D3","rotation":[0,0.192299038171768,0,0.981336355209351],"translation":[-9.2542200088501,0.694312989711761,2.59592008590698]},{"extensions":{},"name":"CSGBox3D4","rotation":[0,0.192299038171768,0,0.981336355209351],"translation":[-9.60531044006348,0.800630986690521,0.880222022533417]},{"extensions":{},"name":"CSGBox3D5","rotation":[0,-0.13220442831516,0,0.991222500801086],"translation":[-9.75483989715576,0.966771006584167,-0.91809797286987]},{"extensions":{},"name":"CSGBox3D6","rotation":[0,-0.24407190084457,0,0.969757199287415],"translation":[-9.0389404296875,0.928021013736725,-2.64297008514404]},{"extensions":{},"name":"CSGBox3D7","rotation":[0.0986037403345108,-0.19067876040936,0.0192541517317295,0.976497948169708],"translation":[-7.76989984512329,2.03765988349915,-5.17671012878418]},{"children":[23,24,25,26,27,28,29,30,31,32,33],"extensions":{},"mesh":1,"name":"Cuarto2","translation":[0,0,0.244262993335724]},{"extensions":{},"name":"CSGBox3D","translation":[0,0,-1.01250994205475]},{"extensions":{},"name":"CSGBox3D2","translation":[-0.01239010039717,2.33081007003784,3.77153992652893]},{"extensions":{},"name":"CSGBox3D32","translation":[2.22217011451721,2.33214998245239,-3.97630000114441]},{"extensions":{},"name":"CSGBox3D11","translation":[-2.18470001220703,4.51372003555298,-3.97630000114441]},{"extensions":{},"name":"CSGBox3D10","translation":[-5.17762994766235,2.33214998245239,-3.97630000114441]},{"extensions":{},"name":"CSGBox3D42","rotation":[0,0.70710676908493,0,0.70710676908493],"translation":[-5.55775022506714,2.33898997306824,-0.02968450076878]},{"extensions":{},"name":"CSGBox3D52","rotation":[0,0.70710676908493,0,0.70710676908493],"translation":[5.60511016845703,2.33898997306824,-0.02968499995768]},{"extensions":{},"name":"CSGBox3D72","translation":[3.22785997390747,0.744090974330902,-1.71386003494263]},{"extensions":{},"name":"CSGBox3D12","translation":[3.22785997390747,0.744090974330902,1.50864005088806]},{"extensions":{},"name":"CSGBox3D8","rotation":[0,-0.70710676908493,0,0.70710676908493],"translation":[-2.89866995811462,0.946300983428955,2.25642991065979]},{"extensions":{},"name":"CSGBox3D9","rotation":[0,-0.70710676908493,0,0.70710676908493],"translation":[3.771399974823,0.812053978443146,-0.07685229927301]},{"children":[35,36,37,38,39,40,41,42,43,44,45],"extensions":{},"mesh":2,"name":"Cuarto52","translation":[11.8871002197266,0,0.244262993335724]},{"extensions":{},"name":"CSGBox3D13","translation":[0,0,-1.01250994205475]},{"extensions":{},"name":"CSGBox3D22","translation":[-0.01239010039717,2.33081007003784,3.77153992652893]},{"extensions":{},"name":"CSGBox3D33","translation":[4.76031017303467,2.33214998245239,-3.97630000114441]},{"extensions":{},"name":"CSGBox3D112","translation":[-2.18470001220703,4.51372003555298,-3.97630000114441]},{"extensions":{},"name":"CSGBox3D102","translation":[-5.17762994766235,2.33214998245239,-3.97630000114441]},{"extensions":{},"name":"CSGBox3D43","rotation":[0,0.70710676908493,0,0.70710676908493],"translation":[-5.55775022506714,2.33898997306824,-0.02968450076878]},{"extensions":{},"name":"CSGBox3D53","rotation":[0,0.70710676908493,0,0.70710676908493],"translation":[5.60511016845703,2.33898997306824,-0.02968499995768]},{"extensions":{},"name":"CSGBox3D73","translation":[3.22785997390747,0.744090974330902,-1.71386003494263]},{"extensions":{},"name":"CSGBox3D122","translation":[3.22785997390747,0.744090974330902,1.50864005088806]},{"extensions":{},"name":"CSGBox3D82","rotation":[0,-0.70710676908493,0,0.70710676908493],"translation":[-2.89866995811462,0.946300983428955,2.25642991065979]},{"extensions":{},"name":"CSGBox3D92","rotation":[0,-0.70710676908493,0,0.70710676908493],"translation":[3.771399974823,0.812053978443146,-0.07685229927301]},{"children":[47,48,49,50,51,52,53,54,55,56,57],"extensions":{},"mesh":3,"name":"Cuarto23","translation":[-11.7952995300293,0,0.244262993335724]},{"extensions":{},"name":"CSGBox3D14","translation":[0,0,-1.01250994205475]},{"extensions":{},"name":"CSGBox3D23","translation":[-0.01239010039717,2.33081007003784,3.77153992652893]},{"extensions":{},"name":"CSGBox3D34","translation":[2.20115852355957,2.33214998245239,-3.97630000114441]},{"extensions":{},"name":"CSGBox3D113","translation":[-2.18470001220703,4.51372003555298,-3.97630000114441]},{"extensions":{},"name":"CSGBox3D103","translation":[-8.25784015655518,2.33214998245239,-3.97630000114441]},{"extensions":{},"name":"CSGBox3D44","rotation":[0,0.70710676908493,0,0.70710676908493],"translation":[-5.55775022506714,2.33898997306824,-0.02968450076878]},{"extensions":{},"name":"CSGBox3D54","rotation":[0,0.70710676908493,0,0.70710676908493],"translation":[5.60511016845703,2.33898997306824,-0.02968499995768]},{"extensions":{},"name":"CSGBox3D74","translation":[3.22785997390747,0.744090974330902,-1.71386003494263]},{"extensions":{},"name":"CSGBox3D123","translation":[3.22785997390747,0.744090974330902,1.50864005088806]},{"extensions":{},"name":"CSGBox3D83","rotation":[0,-0.70710676908493,0,0.70710676908493],"translation":[-2.89866995811462,0.946300983428955,2.25642991065979]},{"extensions":{},"name":"CSGBox3D93","rotation":[0,-0.70710676908493,0,0.70710676908493],"translation":[3.771399974823,0.812053978443146,-0.07685229927301]},{"children":[59,60,61,62,63,64,65,66,67,68,69],"extensions":{},"mesh":4,"name":"Cuarto32","rotation":[0,1,0,-0.0000000437114],"translation":[-19.6998996734619,0,-16.7511005401611]},{"extensions":{},"name":"CSGBox3D15","translation":[0,0,-1.01250994205475]},{"extensions":{},"name":"CSGBox3D24","translation":[-0.01239010039717,2.33081007003784,3.77153992652893]},{"extensions":{},"name":"CSGBox3D35","translation":[1.82096004486084,2.33214998245239,-3.97630000114441]},{"extensions":{},"name":"CSGBox3D114","translation":[-2.18470001220703,4.51372003555298,-3.97630000114441]},{"extensions":{},"name":"CSGBox3D104","translation":[-6.56765985488892,2.33214998245239,-3.97630000114441]},{"extensions":{},"name":"CSGBox3D45","rotation":[0,0.70710676908493,0,0.70710676908493],"translation":[-5.55775022506714,2.33898997306824,-0.02968450076878]},{"extensions":{},"name":"CSGBox3D55","rotation":[0,0.70710676908493,0,0.70710676908493],"translation":[5.60511016845703,2.33898997306824,-0.02968499995768]},{"extensions":{},"name":"CSGBox3D75","translation":[3.22785997390747,0.744090974330902,-1.71386003494263]},{"extensions":{},"name":"CSGBox3D124","translation":[3.22785997390747,0.744090974330902,1.50864005088806]},{"extensions":{},"name":"CSGBox3D84","rotation":[0,-0.70710676908493,0,0.70710676908493],"translation":[-2.89866995811462,0.946300983428955,2.25642991065979]},{"extensions":{},"name":"CSGBox3D94","rotation":[0,-0.70710676908493,0,0.70710676908493],"translation":[3.771399974823,0.812053978443146,-0.07685229927301]},{"children":[71,72,73,74,75,76,77,78,79,80,81],"extensions":{},"mesh":5,"name":"Cuarto42","rotation":[0,1,0,-0.0000000437114],"translation":[3.95194005966187,0,-16.7511005401611]},{"extensions":{},"name":"CSGBox3D16","translation":[0,0,-1.01250994205475]},{"extensions":{},"name":"CSGBox3D25","translation":[-0.01239010039717,2.33081007003784,3.77153992652893]},{"extensions":{},"name":"CSGBox3D36","translation":[4.7907600402832,2.33214998245239,-3.97630000114441]},{"extensions":{},"name":"CSGBox3D115","translation":[-2.18470001220703,4.51372003555298,-3.97630000114441]},{"extensions":{},"name":"CSGBox3D105","translation":[-11.1968002319336,2.33214998245239,-3.97630000114441]},{"extensions":{},"name":"CSGBox3D46","rotation":[0,0.70710676908493,0,0.70710676908493],"translation":[-5.55775022506714,2.33898997306824,-0.02968450076878]},{"extensions":{},"name":"CSGBox3D56","rotation":[0,0.70710676908493,0,0.70710676908493],"translation":[5.60511016845703,2.33898997306824,-0.02968499995768]},{"extensions":{},"name":"CSGBox3D76","translation":[3.22785997390747,0.744090974330902,-1.71386003494263]},{"extensions":{},"name":"CSGBox3D125","translation":[3.22785997390747,0.744090974330902,1.50864005088806]},{"extensions":{},"name":"CSGBox3D85","rotation":[0,-0.70710676908493,0,0.70710676908493],"translation":[-2.89866995811462,0.946300983428955,2.25642991065979]},{"extensions":{},"name":"CSGBox3D95","rotation":[0,-0.70710676908493,0,0.70710676908493],"translation":[3.771399974823,0.812053978443146,-0.07685229927301]},{"children":[83,84,85,86,87,88,89,90,91,92,93,94,95,96,97,98,99,100,101,102,103,104,105,106,107,108,109,110,111,112,113],"extensions":{},"mesh":6,"name":"Pasillos2"},{"extensions":{},"name":"CSGBox3D17","translation":[-1,0,-8.21679973602295]},{"extensions":{},"name":"CSGBox3D37","translation":[-24.9337005615234,3.25282001495361,-8.21679973602295]},{"extensions":{},"name":"CSGBox3D47","translation":[22.2457008361816,3.25282001495361,-8.21679973602295]},{"extensions":{},"name":"CSGBox3D57","translation":[-8.5,0,-17]},{"extensions":{},"name":"CSGBox3D21","rotation":[0,0.563259243965149,0,0.826280236244202],"translation":[-22.0426006317139,0.000000476836987672868,-37.4247016906738]},{"extensions":{},"name":"CSGBox3D252","rotation":[0,0.204179897904396,0,0.978933393955231],"translation":[-13.9657001495361,-0.00000047683699,-45.8022994995117]},{"extensions":{},"name":"CSGBox3D86","translation":[-8.5,7.43049001693726,-17]},{"extensions":{},"name":"CSGBox3D62","translation":[-5.92623996734619,2.33196997642517,-17.5091991424561]},{"extensions":{},"name":"CSGBox3D77","translation":[-11.1181001663208,2.33196997642517,-17.5091991424561]},{"extensions":{},"name":"CSGBox3D96","rotation":[0,-0.55319517850876,0,0.833051681518555],"translation":[-17.6497993469238,4.57686996459961,-27.88330078125]},{"extensions":{},"name":"CSGBox3D106","rotation":[0,-0.82579797506332,0,0.563965916633606],"translation":[-18.6704006195068,4.57686996459961,-32.752799987793]},{"extensions":{},"name":"CSGBox3D172","rotation":[0,-0.82579797506332,0,0.563965916633606],"translation":[-16.378999710083,4.57686996459961,-38.6181983947754]},{"extensions":{},"name":"CSGBox3D18","rotation":[0,-0.82579797506332,0,0.563965916633606],"translation":[-20.956600189209,2.38144993782043,-39.8078994750977]},{"extensions":{},"name":"CSGBox3D20","rotation":[0,-0.82579797506332,0,0.563965916633606],"translation":[-22.8094005584717,2.38144993782043,-35.065299987793]},{"extensions":{},"name":"CSGBox3D19","rotation":[0,-0.82579797506332,0,0.563965916633606],"translation":[-21.8621997833252,7.42738008499146,-37.4421997070313]},{"extensions":{},"name":"CSGBox3D116","rotation":[0,0.980522274971008,0,-0.19640804827213],"translation":[-9.14715003967285,4.57686996459961,-42.543701171875]},{"extensions":{},"name":"CSGBox3D28","rotation":[0,0.980522274971008,0,-0.19640804827213],"translation":[-11.722900390625,2.35783004760742,-47.0206985473633]},{"extensions":{},"name":"CSGBox3D27","rotation":[0,0.980522274971008,0,-0.19640804827213],"translation":[-13.828800201416,7.33313989639282,-45.6786994934082]},{"extensions":{},"name":"CSGBox3D26","rotation":[0,0.980522274971008,0,-0.19640804827213],"translation":[-14.979700088501,4.57686996459961,-40.1094017028809]},{"extensions":{},"name":"CSGBox3D29","rotation":[0,0.980522274971008,0,-0.19640804827213],"translation":[-16.2091007232666,2.33751010894775,-45.1165008544922]},{"extensions":{},"name":"CSGBox3D126","rotation":[0,0.983089089393616,0,0.183127909898758],"translation":[-4.45281982421875,1.13242995738983,-41.2995986938477]},{"extensions":{},"name":"CSGBox3D132","rotation":[0,0.838176012039185,0,0.545399844646454],"translation":[1.27235996723175,1.11168003082275,-36.0107002258301]},{"extensions":{},"name":"CSGBox3D142","rotation":[0,0.547168672084808,0,0.837022364139557],"translation":[-0.13905599713326,4.57686996459961,-24.5513000488281]},{"extensions":{},"name":"CSGBox3D31","rotation":[0,0.547168672084808,0,0.837022364139557],"translation":[0.968801975250244,2.2405800819397,-24.0660991668701]},{"extensions":{},"name":"CSGBox3D322","rotation":[0,0.547168672084808,0,0.837022364139557],"translation":[1.64239001274109,5.96785020828247,-25.6039009094238]},{"extensions":{},"name":"CSGBox3D232","rotation":[0,0.547168672084808,0,0.837022364139557],"translation":[1.97316002845764,4.57686996459961,-29.3736000061035]},{"extensions":{},"name":"CSGBox3D30","rotation":[0,0.547168672084808,0,0.837022364139557],"translation":[2.29882001876831,2.22257995605469,-27.2542991638184]},{"extensions":{},"name":"CSGBox3D222","rotation":[0,0.547168672084808,0,0.837022364139557],"translation":[0.561430990695953,7.2304801940918,-26.1506004333496]},{"extensions":{},"name":"CSGBox3D242","rotation":[0,0.547168672084808,0,0.837022364139557],"translation":[1.2012300491333,0.706906974315643,-25.8703002929688]},{"extensions":{},"name":"CSGBox3D152","rotation":[0,0.142810374498367,0,0.9897500872612],"translation":[-3.31595993041992,4.57686996459961,-23.0627002716064]},{"extensions":{},"name":"CSGBox3D162","rotation":[0,-0.21482890844345,0,0.976651728153229],"translation":[-13.5336999893188,4.57686996459961,-23.3894004821777]}],"scene":0,"scenes":[{"nodes":[0]}]}